# xmcd CD database file generated by Grip 3.2.0
# 
# Track frame offsets:
#       150
#       20235
#       33262
#       51682
#       65982
#       80432
#       97987
#       115940
#       131592
#       148665
#       161860
#       180050
# 
# Disc length: 2576 seconds
# 
# Revision: 4
# Processed by: cddbd v1.5.1PL0 Copyright (c) Steve Scherf et al.
# Submitted via: Grip 3.2.0
# 
DISCID=ab0a0e0c
DTITLE=Various Artist - Hot Country for the 90's II
DYEAR=1997
DGENRE=Country
TTITLE0=Shania Twain - Whose Bed Have Your Boots Been Under
TTITLE1=Alan Jackson - Don't Rock the Jukebox
TTITLE2=John Michael Montgomery - Rope the Moon
TTITLE3=Terri Clark - Better Things To Do
TTITLE4=Randy Travis - Look Heart, No Hands
TTITLE5=Kathy Mattea - A Few Good Things Remain
TTITLE6=Kim Richey - Those Words We Said
TTITLE7=Toby Keith - Wish I Didn't Know Now
TTITLE8=The Kentucky Headhunters - Walk Softly On This Heart Of Mine
TTITLE9=Sammy Kershaw - She Don't Know She's Beautiful
TTITLE10=Billy Ray Cyrus - In The Heart Of A Woman
TTITLE11=John and Audrey Wiggins - Falling Out Of Love
EXTD=YEAR: 1997 ID3G:   2
EXTT0=
EXTT1=
EXTT2=
EXTT3=
EXTT4=
EXTT5=
EXTT6=
EXTT7=
EXTT8=
EXTT9=
EXTT10=
EXTT11=
PLAYORDER=
